# Tiled2Unity generated file. Do not modify by hand.
# Wavefront file for 'Practice-Map_mesh_0003.obj'

# Vertices (Count = 132)
v -163200 -153600 0
v -166400 -153600 0
v -166400 -150400 0
v -163200 -150400 0
v -166400 -153600 0
v -169600 -153600 0
v -169600 -150400 0
v -166400 -150400 0
v -121600 -156800 0
v -124800 -156800 0
v -124800 -153600 0
v -121600 -153600 0
v -124800 -156800 0
v -128000 -156800 0
v -128000 -153600 0
v -124800 -153600 0
v -128000 -156800 0
v -131200 -156800 0
v -131200 -153600 0
v -128000 -153600 0
v -192000 -166400 0
v -195200 -166400 0
v -195200 -163200 0
v -192000 -163200 0
v -195200 -166400 0
v -198400 -166400 0
v -198400 -163200 0
v -195200 -163200 0
v -198400 -166400 0
v -201600 -166400 0
v -201600 -163200 0
v -198400 -163200 0
v -140800 -172800 0
v -144000 -172800 0
v -144000 -169600 0
v -140800 -169600 0
v -144000 -172800 0
v -147200 -172800 0
v -147200 -169600 0
v -144000 -169600 0
v -102400 -179200 0
v -105600 -179200 0
v -105600 -176000 0
v -102400 -176000 0
v -105600 -179200 0
v -108800 -179200 0
v -108800 -176000 0
v -105600 -176000 0
v -204800 -179200 0
v -208000 -179200 0
v -208000 -176000 0
v -204800 -176000 0
v -208000 -179200 0
v -211200 -179200 0
v -211200 -176000 0
v -208000 -176000 0
v -112000 -182400 0
v -115200 -182400 0
v -115200 -179200 0
v -112000 -179200 0
v -115200 -182400 0
v -118400 -182400 0
v -118400 -179200 0
v -115200 -179200 0
v -118400 -182400 0
v -121600 -182400 0
v -121600 -179200 0
v -118400 -179200 0
v -153600 -182400 0
v -156800 -182400 0
v -156800 -179200 0
v -153600 -179200 0
v -156800 -182400 0
v -160000 -182400 0
v -160000 -179200 0
v -156800 -179200 0
v -160000 -182400 0
v -163200 -182400 0
v -163200 -179200 0
v -160000 -179200 0
v -169600 -188800 0
v -172800 -188800 0
v -172800 -185600 0
v -169600 -185600 0
v -172800 -188800 0
v -176000 -188800 0
v -176000 -185600 0
v -172800 -185600 0
v -204800 -195200 0
v -208000 -195200 0
v -208000 -192000 0
v -204800 -192000 0
v -208000 -195200 0
v -211200 -195200 0
v -211200 -192000 0
v -208000 -192000 0
v -211200 -195200 0
v -214400 -195200 0
v -214400 -192000 0
v -211200 -192000 0
v -115200 -201600 0
v -118400 -201600 0
v -118400 -198400 0
v -115200 -198400 0
v -118400 -201600 0
v -121600 -201600 0
v -121600 -198400 0
v -118400 -198400 0
v -121600 -201600 0
v -124800 -201600 0
v -124800 -198400 0
v -121600 -198400 0
v -182400 -220800 0
v -185600 -220800 0
v -185600 -217600 0
v -182400 -217600 0
v -185600 -220800 0
v -188800 -220800 0
v -188800 -217600 0
v -185600 -217600 0
v -137600 -224000 0
v -140800 -224000 0
v -140800 -220800 0
v -137600 -220800 0
v -140800 -224000 0
v -144000 -224000 0
v -144000 -220800 0
v -140800 -220800 0
v -144000 -224000 0
v -147200 -224000 0
v -147200 -220800 0
v -144000 -220800 0

# Texture cooridinates (Count = 12)
vt 0.84375 0
vt 0.875 0
vt 0.875 0.03125
vt 0.84375 0.03125
vt 0.90625 0
vt 0.90625 0.03125
vt 0.9375 0
vt 0.9375 0.03125
vt 0.96875 0
vt 0.96875 0.03125
vt 1 0
vt 1 0.03125

# Normal
vn 0 0 -1

# Mesh description
g Practice-Map_mesh_0003

# Faces
f 1/1/1 2/2/1 3/3/1 4/4/1
f 5/2/1 6/5/1 7/6/1 8/3/1
f 9/5/1 10/7/1 11/8/1 12/6/1
f 13/7/1 14/9/1 15/10/1 16/8/1
f 17/9/1 18/11/1 19/12/1 20/10/1
f 21/5/1 22/7/1 23/8/1 24/6/1
f 25/7/1 26/9/1 27/10/1 28/8/1
f 29/9/1 30/11/1 31/12/1 32/10/1
f 33/1/1 34/2/1 35/3/1 36/4/1
f 37/2/1 38/5/1 39/6/1 40/3/1
f 41/1/1 42/2/1 43/3/1 44/4/1
f 45/2/1 46/5/1 47/6/1 48/3/1
f 49/1/1 50/2/1 51/3/1 52/4/1
f 53/2/1 54/5/1 55/6/1 56/3/1
f 57/5/1 58/7/1 59/8/1 60/6/1
f 61/7/1 62/9/1 63/10/1 64/8/1
f 65/9/1 66/11/1 67/12/1 68/10/1
f 69/5/1 70/7/1 71/8/1 72/6/1
f 73/7/1 74/9/1 75/10/1 76/8/1
f 77/9/1 78/11/1 79/12/1 80/10/1
f 81/1/1 82/2/1 83/3/1 84/4/1
f 85/2/1 86/5/1 87/6/1 88/3/1
f 89/5/1 90/7/1 91/8/1 92/6/1
f 93/7/1 94/9/1 95/10/1 96/8/1
f 97/9/1 98/11/1 99/12/1 100/10/1
f 101/5/1 102/7/1 103/8/1 104/6/1
f 105/7/1 106/9/1 107/10/1 108/8/1
f 109/9/1 110/11/1 111/12/1 112/10/1
f 113/1/1 114/2/1 115/3/1 116/4/1
f 117/2/1 118/5/1 119/6/1 120/3/1
f 121/5/1 122/7/1 123/8/1 124/6/1
f 125/7/1 126/9/1 127/10/1 128/8/1
f 129/9/1 130/11/1 131/12/1 132/10/1

