# Tiled2Unity generated file. Do not modify by hand.
# Wavefront file for 'Practice-Map_mesh_0005.obj'

# Vertices (Count = 152)
v -112000 -156800 0
v -115200 -156800 0
v -115200 -153600 0
v -112000 -153600 0
v -134400 -156800 0
v -137600 -156800 0
v -137600 -153600 0
v -134400 -153600 0
v -140800 -179200 0
v -144000 -179200 0
v -144000 -176000 0
v -140800 -176000 0
v -144000 -179200 0
v -147200 -179200 0
v -147200 -176000 0
v -144000 -176000 0
v -192000 -179200 0
v -195200 -179200 0
v -195200 -176000 0
v -192000 -176000 0
v -195200 -179200 0
v -198400 -179200 0
v -198400 -176000 0
v -195200 -176000 0
v -140800 -182400 0
v -144000 -182400 0
v -144000 -179200 0
v -140800 -179200 0
v -144000 -182400 0
v -147200 -182400 0
v -147200 -179200 0
v -144000 -179200 0
v -192000 -182400 0
v -195200 -182400 0
v -195200 -179200 0
v -192000 -179200 0
v -195200 -182400 0
v -198400 -182400 0
v -198400 -179200 0
v -195200 -179200 0
v -124800 -185600 0
v -128000 -185600 0
v -128000 -182400 0
v -124800 -182400 0
v -156800 -192000 0
v -160000 -192000 0
v -160000 -188800 0
v -156800 -188800 0
v -201600 -192000 0
v -204800 -192000 0
v -204800 -188800 0
v -201600 -188800 0
v -201600 -195200 0
v -204800 -195200 0
v -204800 -192000 0
v -201600 -192000 0
v -176000 -198400 0
v -179200 -198400 0
v -179200 -195200 0
v -176000 -195200 0
v -201600 -198400 0
v -204800 -198400 0
v -204800 -195200 0
v -201600 -195200 0
v -208000 -198400 0
v -211200 -198400 0
v -211200 -195200 0
v -208000 -195200 0
v -208000 -201600 0
v -211200 -201600 0
v -211200 -198400 0
v -208000 -198400 0
v -214400 -201600 0
v -217600 -201600 0
v -217600 -198400 0
v -214400 -198400 0
v -208000 -204800 0
v -211200 -204800 0
v -211200 -201600 0
v -208000 -201600 0
v -214400 -204800 0
v -217600 -204800 0
v -217600 -201600 0
v -214400 -201600 0
v -208000 -208000 0
v -211200 -208000 0
v -211200 -204800 0
v -208000 -204800 0
v -214400 -208000 0
v -217600 -208000 0
v -217600 -204800 0
v -214400 -204800 0
v -195200 -214400 0
v -198400 -214400 0
v -198400 -211200 0
v -195200 -211200 0
v -201600 -214400 0
v -204800 -214400 0
v -204800 -211200 0
v -201600 -211200 0
v -150400 -217600 0
v -153600 -217600 0
v -153600 -214400 0
v -150400 -214400 0
v -166400 -217600 0
v -169600 -217600 0
v -169600 -214400 0
v -166400 -214400 0
v -169600 -217600 0
v -172800 -217600 0
v -172800 -214400 0
v -169600 -214400 0
v -195200 -217600 0
v -198400 -217600 0
v -198400 -214400 0
v -195200 -214400 0
v -198400 -217600 0
v -201600 -217600 0
v -201600 -214400 0
v -198400 -214400 0
v -201600 -217600 0
v -204800 -217600 0
v -204800 -214400 0
v -201600 -214400 0
v -208000 -217600 0
v -211200 -217600 0
v -211200 -214400 0
v -208000 -214400 0
v -166400 -220800 0
v -169600 -220800 0
v -169600 -217600 0
v -166400 -217600 0
v -169600 -220800 0
v -172800 -220800 0
v -172800 -217600 0
v -169600 -217600 0
v -195200 -220800 0
v -198400 -220800 0
v -198400 -217600 0
v -195200 -217600 0
v -201600 -220800 0
v -204800 -220800 0
v -204800 -217600 0
v -201600 -217600 0
v -208000 -220800 0
v -211200 -220800 0
v -211200 -217600 0
v -208000 -217600 0
v -208000 -224000 0
v -211200 -224000 0
v -211200 -220800 0
v -208000 -220800 0

# Texture cooridinates (Count = 24)
vt 0.8125 0.1875
vt 0.84375 0.1875
vt 0.84375 0.21875
vt 0.8125 0.21875
vt 0.90625 0.1875
vt 0.9375 0.1875
vt 0.9375 0.21875
vt 0.90625 0.21875
vt 0.84375 0.25
vt 0.875 0.25
vt 0.875 0.28125
vt 0.84375 0.28125
vt 0.90625 0.25
vt 0.90625 0.28125
vt 0.875 0.21875
vt 0.625 0.59375
vt 0.65625 0.59375
vt 0.65625 0.625
vt 0.625 0.625
vt 0.625 0.5625
vt 0.65625 0.5625
vt 0.625 0.53125
vt 0.65625 0.53125
vt 0.875 0.1875

# Normal
vn 0 0 -1

# Mesh description
g Practice-Map_mesh_0005

# Faces
f 1/1/1 2/2/1 3/3/1 4/4/1
f 5/5/1 6/6/1 7/7/1 8/8/1
f 9/9/1 10/10/1 11/11/1 12/12/1
f 13/10/1 14/13/1 15/14/1 16/11/1
f 17/9/1 18/10/1 19/11/1 20/12/1
f 21/10/1 22/13/1 23/14/1 24/11/1
f 25/3/1 26/15/1 27/10/1 28/9/1
f 29/15/1 30/8/1 31/13/1 32/10/1
f 33/3/1 34/15/1 35/10/1 36/9/1
f 37/15/1 38/8/1 39/13/1 40/10/1
f 41/5/1 42/6/1 43/7/1 44/8/1
f 45/1/1 46/2/1 47/3/1 48/4/1
f 49/16/1 50/17/1 51/18/1 52/19/1
f 53/20/1 54/21/1 55/17/1 56/16/1
f 57/1/1 58/2/1 59/3/1 60/4/1
f 61/22/1 62/23/1 63/21/1 64/20/1
f 65/16/1 66/17/1 67/18/1 68/19/1
f 69/20/1 70/21/1 71/17/1 72/16/1
f 73/16/1 74/17/1 75/18/1 76/19/1
f 77/22/1 78/23/1 79/21/1 80/20/1
f 81/20/1 82/21/1 83/17/1 84/16/1
f 85/24/1 86/5/1 87/8/1 88/15/1
f 89/22/1 90/23/1 91/21/1 92/20/1
f 93/16/1 94/17/1 95/18/1 96/19/1
f 97/16/1 98/17/1 99/18/1 100/19/1
f 101/5/1 102/6/1 103/7/1 104/8/1
f 105/9/1 106/10/1 107/11/1 108/12/1
f 109/10/1 110/13/1 111/14/1 112/11/1
f 113/20/1 114/21/1 115/17/1 116/16/1
f 117/1/1 118/2/1 119/3/1 120/4/1
f 121/20/1 122/21/1 123/17/1 124/16/1
f 125/16/1 126/17/1 127/18/1 128/19/1
f 129/3/1 130/15/1 131/10/1 132/9/1
f 133/15/1 134/8/1 135/13/1 136/10/1
f 137/22/1 138/23/1 139/21/1 140/20/1
f 141/22/1 142/23/1 143/21/1 144/20/1
f 145/20/1 146/21/1 147/17/1 148/16/1
f 149/22/1 150/23/1 151/21/1 152/20/1

