# Tiled2Unity generated file. Do not modify by hand.
# Wavefront file for 'Practice-Map_mesh_0006.obj'

# Vertices (Count = 348)
v -121600 -147200 0
v -124800 -147200 0
v -124800 -144000 0
v -121600 -144000 0
v -124800 -147200 0
v -128000 -147200 0
v -128000 -144000 0
v -124800 -144000 0
v -128000 -147200 0
v -131200 -147200 0
v -131200 -144000 0
v -128000 -144000 0
v -163200 -147200 0
v -166400 -147200 0
v -166400 -144000 0
v -163200 -144000 0
v -166400 -147200 0
v -169600 -147200 0
v -169600 -144000 0
v -166400 -144000 0
v -121600 -150400 0
v -124800 -150400 0
v -124800 -147200 0
v -121600 -147200 0
v -124800 -150400 0
v -128000 -150400 0
v -128000 -147200 0
v -124800 -147200 0
v -128000 -150400 0
v -131200 -150400 0
v -131200 -147200 0
v -128000 -147200 0
v -163200 -150400 0
v -166400 -150400 0
v -166400 -147200 0
v -163200 -147200 0
v -166400 -150400 0
v -169600 -150400 0
v -169600 -147200 0
v -166400 -147200 0
v -121600 -153600 0
v -124800 -153600 0
v -124800 -150400 0
v -121600 -150400 0
v -124800 -153600 0
v -128000 -153600 0
v -128000 -150400 0
v -124800 -150400 0
v -128000 -153600 0
v -131200 -153600 0
v -131200 -150400 0
v -128000 -150400 0
v -192000 -156800 0
v -195200 -156800 0
v -195200 -153600 0
v -192000 -153600 0
v -195200 -156800 0
v -198400 -156800 0
v -198400 -153600 0
v -195200 -153600 0
v -198400 -156800 0
v -201600 -156800 0
v -201600 -153600 0
v -198400 -153600 0
v -192000 -160000 0
v -195200 -160000 0
v -195200 -156800 0
v -192000 -156800 0
v -195200 -160000 0
v -198400 -160000 0
v -198400 -156800 0
v -195200 -156800 0
v -198400 -160000 0
v -201600 -160000 0
v -201600 -156800 0
v -198400 -156800 0
v -192000 -163200 0
v -195200 -163200 0
v -195200 -160000 0
v -192000 -160000 0
v -195200 -163200 0
v -198400 -163200 0
v -198400 -160000 0
v -195200 -160000 0
v -198400 -163200 0
v -201600 -163200 0
v -201600 -160000 0
v -198400 -160000 0
v -140800 -166400 0
v -144000 -166400 0
v -144000 -163200 0
v -140800 -163200 0
v -144000 -166400 0
v -147200 -166400 0
v -147200 -163200 0
v -144000 -163200 0
v -140800 -169600 0
v -144000 -169600 0
v -144000 -166400 0
v -140800 -166400 0
v -144000 -169600 0
v -147200 -169600 0
v -147200 -166400 0
v -144000 -166400 0
v -102400 -172800 0
v -105600 -172800 0
v -105600 -169600 0
v -102400 -169600 0
v -105600 -172800 0
v -108800 -172800 0
v -108800 -169600 0
v -105600 -169600 0
v -112000 -172800 0
v -115200 -172800 0
v -115200 -169600 0
v -112000 -169600 0
v -115200 -172800 0
v -118400 -172800 0
v -118400 -169600 0
v -115200 -169600 0
v -118400 -172800 0
v -121600 -172800 0
v -121600 -169600 0
v -118400 -169600 0
v -153600 -172800 0
v -156800 -172800 0
v -156800 -169600 0
v -153600 -169600 0
v -156800 -172800 0
v -160000 -172800 0
v -160000 -169600 0
v -156800 -169600 0
v -160000 -172800 0
v -163200 -172800 0
v -163200 -169600 0
v -160000 -169600 0
v -204800 -172800 0
v -208000 -172800 0
v -208000 -169600 0
v -204800 -169600 0
v -208000 -172800 0
v -211200 -172800 0
v -211200 -169600 0
v -208000 -169600 0
v -102400 -176000 0
v -105600 -176000 0
v -105600 -172800 0
v -102400 -172800 0
v -105600 -176000 0
v -108800 -176000 0
v -108800 -172800 0
v -105600 -172800 0
v -112000 -176000 0
v -115200 -176000 0
v -115200 -172800 0
v -112000 -172800 0
v -115200 -176000 0
v -118400 -176000 0
v -118400 -172800 0
v -115200 -172800 0
v -118400 -176000 0
v -121600 -176000 0
v -121600 -172800 0
v -118400 -172800 0
v -153600 -176000 0
v -156800 -176000 0
v -156800 -172800 0
v -153600 -172800 0
v -156800 -176000 0
v -160000 -176000 0
v -160000 -172800 0
v -156800 -172800 0
v -160000 -176000 0
v -163200 -176000 0
v -163200 -172800 0
v -160000 -172800 0
v -204800 -176000 0
v -208000 -176000 0
v -208000 -172800 0
v -204800 -172800 0
v -208000 -176000 0
v -211200 -176000 0
v -211200 -172800 0
v -208000 -172800 0
v -112000 -179200 0
v -115200 -179200 0
v -115200 -176000 0
v -112000 -176000 0
v -115200 -179200 0
v -118400 -179200 0
v -118400 -176000 0
v -115200 -176000 0
v -118400 -179200 0
v -121600 -179200 0
v -121600 -176000 0
v -118400 -176000 0
v -153600 -179200 0
v -156800 -179200 0
v -156800 -176000 0
v -153600 -176000 0
v -156800 -179200 0
v -160000 -179200 0
v -160000 -176000 0
v -156800 -176000 0
v -160000 -179200 0
v -163200 -179200 0
v -163200 -176000 0
v -160000 -176000 0
v -169600 -182400 0
v -172800 -182400 0
v -172800 -179200 0
v -169600 -179200 0
v -172800 -182400 0
v -176000 -182400 0
v -176000 -179200 0
v -172800 -179200 0
v -169600 -185600 0
v -172800 -185600 0
v -172800 -182400 0
v -169600 -182400 0
v -172800 -185600 0
v -176000 -185600 0
v -176000 -182400 0
v -172800 -182400 0
v -204800 -185600 0
v -208000 -185600 0
v -208000 -182400 0
v -204800 -182400 0
v -208000 -185600 0
v -211200 -185600 0
v -211200 -182400 0
v -208000 -182400 0
v -211200 -185600 0
v -214400 -185600 0
v -214400 -182400 0
v -211200 -182400 0
v -204800 -188800 0
v -208000 -188800 0
v -208000 -185600 0
v -204800 -185600 0
v -208000 -188800 0
v -211200 -188800 0
v -211200 -185600 0
v -208000 -185600 0
v -211200 -188800 0
v -214400 -188800 0
v -214400 -185600 0
v -211200 -185600 0
v -115200 -192000 0
v -118400 -192000 0
v -118400 -188800 0
v -115200 -188800 0
v -118400 -192000 0
v -121600 -192000 0
v -121600 -188800 0
v -118400 -188800 0
v -121600 -192000 0
v -124800 -192000 0
v -124800 -188800 0
v -121600 -188800 0
v -204800 -192000 0
v -208000 -192000 0
v -208000 -188800 0
v -204800 -188800 0
v -208000 -192000 0
v -211200 -192000 0
v -211200 -188800 0
v -208000 -188800 0
v -211200 -192000 0
v -214400 -192000 0
v -214400 -188800 0
v -211200 -188800 0
v -115200 -195200 0
v -118400 -195200 0
v -118400 -192000 0
v -115200 -192000 0
v -118400 -195200 0
v -121600 -195200 0
v -121600 -192000 0
v -118400 -192000 0
v -121600 -195200 0
v -124800 -195200 0
v -124800 -192000 0
v -121600 -192000 0
v -115200 -198400 0
v -118400 -198400 0
v -118400 -195200 0
v -115200 -195200 0
v -118400 -198400 0
v -121600 -198400 0
v -121600 -195200 0
v -118400 -195200 0
v -121600 -198400 0
v -124800 -198400 0
v -124800 -195200 0
v -121600 -195200 0
v -137600 -214400 0
v -140800 -214400 0
v -140800 -211200 0
v -137600 -211200 0
v -140800 -214400 0
v -144000 -214400 0
v -144000 -211200 0
v -140800 -211200 0
v -144000 -214400 0
v -147200 -214400 0
v -147200 -211200 0
v -144000 -211200 0
v -182400 -214400 0
v -185600 -214400 0
v -185600 -211200 0
v -182400 -211200 0
v -185600 -214400 0
v -188800 -214400 0
v -188800 -211200 0
v -185600 -211200 0
v -137600 -217600 0
v -140800 -217600 0
v -140800 -214400 0
v -137600 -214400 0
v -140800 -217600 0
v -144000 -217600 0
v -144000 -214400 0
v -140800 -214400 0
v -144000 -217600 0
v -147200 -217600 0
v -147200 -214400 0
v -144000 -214400 0
v -182400 -217600 0
v -185600 -217600 0
v -185600 -214400 0
v -182400 -214400 0
v -185600 -217600 0
v -188800 -217600 0
v -188800 -214400 0
v -185600 -214400 0
v -137600 -220800 0
v -140800 -220800 0
v -140800 -217600 0
v -137600 -217600 0
v -140800 -220800 0
v -144000 -220800 0
v -144000 -217600 0
v -140800 -217600 0
v -144000 -220800 0
v -147200 -220800 0
v -147200 -217600 0
v -144000 -217600 0

# Texture cooridinates (Count = 22)
vt 0.90625 0.09375
vt 0.9375 0.09375
vt 0.9375 0.125
vt 0.90625 0.125
vt 0.96875 0.09375
vt 0.96875 0.125
vt 1 0.09375
vt 1 0.125
vt 0.84375 0.0625
vt 0.875 0.0625
vt 0.875 0.09375
vt 0.84375 0.09375
vt 0.90625 0.0625
vt 0.9375 0.0625
vt 0.96875 0.0625
vt 1 0.0625
vt 0.84375 0.03125
vt 0.875 0.03125
vt 0.90625 0.03125
vt 0.9375 0.03125
vt 0.96875 0.03125
vt 1 0.03125

# Normal
vn 0 0 -1

# Mesh description
g Practice-Map_mesh_0006

# Faces
f 1/1/1 2/2/1 3/3/1 4/4/1
f 5/2/1 6/5/1 7/6/1 8/3/1
f 9/5/1 10/7/1 11/8/1 12/6/1
f 13/9/1 14/10/1 15/11/1 16/12/1
f 17/10/1 18/13/1 19/1/1 20/11/1
f 21/13/1 22/14/1 23/2/1 24/1/1
f 25/14/1 26/15/1 27/5/1 28/2/1
f 29/15/1 30/16/1 31/7/1 32/5/1
f 33/17/1 34/18/1 35/10/1 36/9/1
f 37/18/1 38/19/1 39/13/1 40/10/1
f 41/19/1 42/20/1 43/14/1 44/13/1
f 45/20/1 46/21/1 47/15/1 48/14/1
f 49/21/1 50/22/1 51/16/1 52/15/1
f 53/1/1 54/2/1 55/3/1 56/4/1
f 57/2/1 58/5/1 59/6/1 60/3/1
f 61/5/1 62/7/1 63/8/1 64/6/1
f 65/13/1 66/14/1 67/2/1 68/1/1
f 69/14/1 70/15/1 71/5/1 72/2/1
f 73/15/1 74/16/1 75/7/1 76/5/1
f 77/19/1 78/20/1 79/14/1 80/13/1
f 81/20/1 82/21/1 83/15/1 84/14/1
f 85/21/1 86/22/1 87/16/1 88/15/1
f 89/9/1 90/10/1 91/11/1 92/12/1
f 93/10/1 94/13/1 95/1/1 96/11/1
f 97/17/1 98/18/1 99/10/1 100/9/1
f 101/18/1 102/19/1 103/13/1 104/10/1
f 105/9/1 106/10/1 107/11/1 108/12/1
f 109/10/1 110/13/1 111/1/1 112/11/1
f 113/1/1 114/2/1 115/3/1 116/4/1
f 117/2/1 118/5/1 119/6/1 120/3/1
f 121/5/1 122/7/1 123/8/1 124/6/1
f 125/1/1 126/2/1 127/3/1 128/4/1
f 129/2/1 130/5/1 131/6/1 132/3/1
f 133/5/1 134/7/1 135/8/1 136/6/1
f 137/9/1 138/10/1 139/11/1 140/12/1
f 141/10/1 142/13/1 143/1/1 144/11/1
f 145/17/1 146/18/1 147/10/1 148/9/1
f 149/18/1 150/19/1 151/13/1 152/10/1
f 153/13/1 154/14/1 155/2/1 156/1/1
f 157/14/1 158/15/1 159/5/1 160/2/1
f 161/15/1 162/16/1 163/7/1 164/5/1
f 165/13/1 166/14/1 167/2/1 168/1/1
f 169/14/1 170/15/1 171/5/1 172/2/1
f 173/15/1 174/16/1 175/7/1 176/5/1
f 177/17/1 178/18/1 179/10/1 180/9/1
f 181/18/1 182/19/1 183/13/1 184/10/1
f 185/19/1 186/20/1 187/14/1 188/13/1
f 189/20/1 190/21/1 191/15/1 192/14/1
f 193/21/1 194/22/1 195/16/1 196/15/1
f 197/19/1 198/20/1 199/14/1 200/13/1
f 201/20/1 202/21/1 203/15/1 204/14/1
f 205/21/1 206/22/1 207/16/1 208/15/1
f 209/9/1 210/10/1 211/11/1 212/12/1
f 213/10/1 214/13/1 215/1/1 216/11/1
f 217/17/1 218/18/1 219/10/1 220/9/1
f 221/18/1 222/19/1 223/13/1 224/10/1
f 225/1/1 226/2/1 227/3/1 228/4/1
f 229/2/1 230/5/1 231/6/1 232/3/1
f 233/5/1 234/7/1 235/8/1 236/6/1
f 237/13/1 238/14/1 239/2/1 240/1/1
f 241/14/1 242/15/1 243/5/1 244/2/1
f 245/15/1 246/16/1 247/7/1 248/5/1
f 249/1/1 250/2/1 251/3/1 252/4/1
f 253/2/1 254/5/1 255/6/1 256/3/1
f 257/5/1 258/7/1 259/8/1 260/6/1
f 261/19/1 262/20/1 263/14/1 264/13/1
f 265/20/1 266/21/1 267/15/1 268/14/1
f 269/21/1 270/22/1 271/16/1 272/15/1
f 273/13/1 274/14/1 275/2/1 276/1/1
f 277/14/1 278/15/1 279/5/1 280/2/1
f 281/15/1 282/16/1 283/7/1 284/5/1
f 285/19/1 286/20/1 287/14/1 288/13/1
f 289/20/1 290/21/1 291/15/1 292/14/1
f 293/21/1 294/22/1 295/16/1 296/15/1
f 297/1/1 298/2/1 299/3/1 300/4/1
f 301/2/1 302/5/1 303/6/1 304/3/1
f 305/5/1 306/7/1 307/8/1 308/6/1
f 309/9/1 310/10/1 311/11/1 312/12/1
f 313/10/1 314/13/1 315/1/1 316/11/1
f 317/13/1 318/14/1 319/2/1 320/1/1
f 321/14/1 322/15/1 323/5/1 324/2/1
f 325/15/1 326/16/1 327/7/1 328/5/1
f 329/17/1 330/18/1 331/10/1 332/9/1
f 333/18/1 334/19/1 335/13/1 336/10/1
f 337/19/1 338/20/1 339/14/1 340/13/1
f 341/20/1 342/21/1 343/15/1 344/14/1
f 345/21/1 346/22/1 347/16/1 348/15/1

